<svg version="1.1" id="Layer_1" xmlns="http://www.w3.org/2000/svg" xmlns:xlink="http://www.w3.org/1999/xlink" x="0px" y="0px"
	 width="100%" viewBox="0 0 1024 1024" enable-background="new 0 0 1024 1024" xml:space="preserve">
<path fill="#000000" opacity="1.000000" stroke="none" 
	d="
M412.795227,788.928223 
	C401.744324,794.464905 391.110352,800.014404 380.252655,805.084839 
	C376.018524,807.062256 374.919647,809.386902 375.678345,813.991150 
	C378.138641,828.921997 380.099487,843.935669 382.197510,858.925110 
	C382.420898,860.521179 382.803436,862.211365 381.420349,864.493591 
	C374.598053,860.922729 367.646027,857.498962 360.939789,853.647339 
	C358.831757,852.436646 359.132782,849.513977 358.805084,847.229492 
	C357.395142,837.399475 355.998108,827.567688 354.568695,817.542297 
	C350.963257,817.640198 348.695923,819.473938 346.265350,820.738159 
	C339.470184,824.272644 332.683594,827.833740 326.022827,831.612061 
	C323.079498,833.281555 320.589355,833.272583 317.638153,831.625549 
	C312.188599,828.584106 306.552887,825.876221 301.015503,823.039978 
	C302.242523,820.140259 304.385010,819.744202 306.089417,818.876282 
	C319.001221,812.301147 331.888580,805.671204 344.931030,799.363220 
	C349.063751,797.364380 350.779388,795.325867 349.857025,790.299316 
	C347.369446,776.742432 345.626953,763.048828 343.584564,749.410156 
	C343.434052,748.405151 343.155121,747.456543 341.897522,746.680176 
	C338.519714,747.526489 335.616699,749.841431 332.508972,751.642761 
	C305.565948,767.260132 278.637146,782.903137 251.809738,798.717712 
	C248.211304,800.838928 245.616364,801.003906 242.684052,797.853821 
	C239.661591,794.606812 235.625458,792.384827 232.399490,788.182068 
	C238.888535,784.291870 245.067429,780.492676 251.335205,776.846252 
	C281.853821,759.090942 312.397583,741.378845 342.929321,723.645996 
	C349.771851,719.671875 349.803833,719.619385 355.678558,724.840759 
	C358.389435,727.250061 361.532166,729.230957 363.765717,732.522583 
	C360.759674,736.477783 355.457001,737.229553 352.151489,740.794189 
	C354.070435,742.906372 356.479797,743.902283 358.736145,744.609924 
	C364.542175,746.430847 365.765076,750.775635 366.365173,756.037476 
	C367.526978,766.223938 369.033752,776.371094 370.496613,787.273071 
	C380.449738,781.924744 389.907196,777.106506 399.079926,771.796509 
	C403.331024,769.335571 406.848938,769.196655 411.082367,771.725952 
	C416.315094,774.852356 421.917633,777.359802 428.652161,780.793335 
	C422.698334,783.843689 417.910522,786.296631 412.795227,788.928223 
z"/>
<path fill="#000000" opacity="1.000000" stroke="none" 
	d="
M758.255737,307.373840 
	C738.759399,319.413086 717.655945,317.410675 698.913513,301.626526 
	C688.345764,292.726715 678.162048,283.372131 667.679688,274.368713 
	C664.823364,271.915344 664.415100,270.079468 667.082153,267.073700 
	C686.087402,245.654999 704.981262,224.136948 723.809265,202.562073 
	C726.317627,199.687744 728.143799,199.343155 731.121948,202.045868 
	C740.983948,210.995865 751.274048,219.478668 761.038513,228.530594 
	C775.280334,241.733231 783.490967,257.518890 779.219543,277.549500 
	C776.527344,290.174530 768.869934,299.686249 758.255737,307.373840 
M727.216858,233.728333 
	C725.370972,235.871689 723.547424,238.034760 721.675415,240.155060 
	C713.415466,249.510498 705.108887,258.825165 696.906555,268.230774 
	C695.629028,269.695770 693.147949,271.382843 695.882263,273.598175 
	C702.339111,278.829620 707.866943,285.203278 715.139160,289.426117 
	C728.509033,297.189789 741.531555,294.268066 752.138245,281.185669 
	C760.746887,270.567474 760.099731,255.387360 750.307739,245.182617 
	C746.052734,240.748276 741.118774,236.968719 736.817871,232.574020 
	C733.263184,228.941666 730.455139,229.043472 727.216858,233.728333 
z"/>
<path fill="#000000" opacity="1.000000" stroke="none" 
	d="
M235.183258,550.019104 
	C235.391220,563.299744 235.388031,563.154419 222.820938,563.430542 
	C197.174026,563.994202 171.531769,564.765564 145.885696,565.371887 
	C139.394684,565.525330 138.971191,565.267212 139.043762,558.715332 
	C139.215179,543.238159 137.202011,527.745178 138.773209,512.306458 
	C140.657364,493.792633 149.054184,479.014557 166.832077,471.762054 
	C185.035217,464.336029 202.623642,466.390442 217.793442,479.597351 
	C229.157669,489.491089 233.376465,502.950745 234.157074,517.564697 
	C234.725494,528.206238 234.851578,538.871399 235.183258,550.019104 
M214.881531,520.586426 
	C214.851044,519.755127 214.833603,518.923096 214.788162,518.092651 
	C213.965790,503.065247 203.126495,491.798553 189.053833,491.339600 
	C171.095871,490.753937 160.227921,499.531036 157.924896,515.971313 
	C156.870010,523.501770 158.453842,530.903564 158.120728,538.371399 
	C157.970871,541.731079 160.355774,541.950317 162.867233,541.889465 
	C179.159241,541.494751 195.450485,541.057373 211.744293,540.759888 
	C214.851105,540.703186 215.849365,539.343811 215.667664,536.463074 
	C215.353760,531.486877 215.155792,526.503357 214.881531,520.586426 
z"/>
<path fill="#000000" opacity="1.000000" stroke="none" 
	d="
M308.826599,228.724213 
	C309.390045,228.428406 309.851105,228.051956 309.823212,228.011353 
	C305.582703,221.837296 311.095703,219.782684 314.551453,216.993790 
	C323.489716,209.780365 323.541351,209.801712 330.678436,218.806732 
	C341.229706,232.119598 351.773895,245.438263 362.262634,258.800354 
	C365.143280,262.470123 367.654541,266.383392 369.529663,270.704041 
	C374.402679,281.932587 373.272369,292.674957 366.120483,302.372894 
	C355.858704,316.287872 342.073730,325.128937 325.121185,328.933319 
	C321.179901,329.817780 318.498169,329.123077 318.281189,324.468079 
	C318.273529,324.304016 318.201141,324.144012 318.180573,323.979370 
	C317.728546,320.358551 316.192780,316.429443 317.109070,313.195282 
	C318.218781,309.278442 323.172852,311.053894 326.321259,309.939758 
	C333.684021,307.334290 340.274475,303.641388 345.775116,298.115021 
	C353.257751,290.597473 353.153625,281.520569 345.117523,273.507202 
	C341.078613,287.130524 331.942261,295.649506 318.922241,299.909729 
	C311.092072,302.471802 303.165222,302.019531 295.454071,298.918091 
	C280.603027,292.945007 271.007812,275.599335 273.702759,259.565887 
	C276.430450,243.337891 291.688080,229.846481 308.826599,228.724213 
M323.663361,276.242310 
	C324.421692,275.592102 325.223389,274.985748 325.931702,274.284943 
	C333.424255,266.871765 333.926636,257.029999 327.202820,249.732803 
	C320.434906,242.387726 310.059845,242.235870 301.646027,249.358704 
	C294.216553,255.648224 292.935364,265.959839 298.642487,273.533051 
	C304.481201,281.280884 313.234955,282.402344 323.663361,276.242310 
z"/>
<path fill="#000000" opacity="1.000000" stroke="none" 
	d="
M727.770142,645.765442 
	C730.577454,642.020447 733.340393,638.666382 735.731262,635.065369 
	C737.753662,632.019287 739.548889,631.687134 742.552979,633.951172 
	C761.704773,648.384949 780.968140,662.670532 800.194641,677.005188 
	C805.268311,680.787903 810.279785,684.658142 815.439209,688.319946 
	C818.225342,690.297302 818.653564,692.143555 816.333191,694.815430 
	C814.264954,697.196899 812.408386,699.788696 810.680725,702.432983 
	C808.262939,706.133545 805.827454,709.191040 801.285339,704.584045 
	C800.424622,728.783875 781.037292,741.172119 766.778198,742.108948 
	C749.803040,743.224365 730.473083,728.718811 725.963623,711.850281 
	C722.148010,697.577576 729.856750,675.491089 751.083435,668.278625 
	C743.609375,662.668579 736.494507,657.306824 729.352966,651.980896 
	C727.257019,650.417847 725.042969,648.969055 727.770142,645.765442 
M746.624573,695.454468 
	C744.827515,709.261353 755.171692,720.759644 768.612061,719.895020 
	C776.975708,719.356995 784.243774,712.045715 784.756042,703.654907 
	C785.339050,694.105225 778.410645,685.317017 768.251892,682.720703 
	C759.232605,680.415649 751.274353,684.884155 746.624573,695.454468 
z"/>
<path fill="#000000" opacity="1.000000" stroke="none" 
	d="
M211.967499,670.935181 
	C219.399826,665.846191 226.156662,660.372559 233.844788,656.330200 
	C251.796997,646.891113 269.516968,650.267456 282.832581,665.640625 
	C289.473846,673.308044 294.568115,681.869385 296.237823,692.005981 
	C298.627045,706.510193 293.082520,718.313293 282.189789,727.354797 
	C267.456421,739.584351 251.109787,749.676147 235.723541,761.056030 
	C233.676666,762.569946 232.143951,762.283936 230.709732,760.226135 
	C227.568985,755.719788 224.389404,751.239685 221.168442,746.790283 
	C218.974457,743.759583 221.510971,742.690369 223.351578,741.385437 
	C235.708664,732.624573 248.145264,723.974365 260.430328,715.113953 
	C266.786469,710.529663 272.961639,705.738037 274.940491,697.402527 
	C277.872131,685.053650 263.471680,670.730591 251.207993,673.909790 
	C245.601425,675.363159 240.902893,678.464661 236.278854,681.765625 
	C224.358612,690.275146 212.269455,698.557678 200.554489,707.340027 
	C196.287598,710.538818 194.086517,709.791992 191.709808,705.512573 
	C190.022232,702.473877 187.954376,699.581909 185.679367,696.950256 
	C182.758392,693.571350 182.796951,691.425781 186.834152,688.762085 
	C195.303101,683.174316 203.413803,677.043579 211.967499,670.935181 
z"/>
<path fill="#000000" opacity="1.000000" stroke="none" 
	d="
M494.388977,796.618164 
	C504.493530,807.266541 505.925751,819.917664 503.924438,833.239136 
	C501.478638,849.519348 498.532654,865.723755 495.951538,881.984558 
	C495.308197,886.037476 493.936340,887.909180 489.415222,886.619751 
	C485.439270,885.485840 481.263367,884.882751 477.133728,884.505188 
	C472.917816,884.119690 472.400940,881.960205 473.023682,878.380737 
	C475.872040,862.009399 478.671082,845.628235 481.314850,829.222717 
	C483.988922,812.629456 475.009308,802.507935 458.491943,803.252136 
	C450.335968,803.619568 443.874878,809.156128 441.575897,819.066833 
	C439.325684,828.767639 437.946320,838.672974 436.262756,848.501892 
	C434.885803,856.540344 433.539703,864.586243 432.354462,872.654419 
	C431.914948,875.646362 430.436127,876.689697 427.607178,876.224854 
	C423.008606,875.469116 418.419403,874.648071 413.807831,873.982239 
	C410.525696,873.508362 409.247833,871.910583 409.817383,868.538879 
	C412.615356,851.974915 415.074951,835.350403 418.098022,818.828552 
	C424.023407,786.444702 449.302582,777.318909 477.113007,786.274841 
	C483.515717,788.336731 489.430206,791.366882 494.388977,796.618164 
z"/>
<path fill="#000000" opacity="1.000000" stroke="none" 
	d="
M674.698608,737.695068 
	C685.320801,727.821533 696.922852,721.037109 711.710999,722.669006 
	C727.000000,724.356140 737.013977,733.466064 742.531372,747.162415 
	C748.043884,760.846924 745.374573,773.834290 735.750427,784.961365 
	C722.035767,800.817871 702.367065,804.621826 686.383423,794.907227 
	C681.466614,791.918884 677.722229,787.701477 674.174316,783.229309 
	C671.837097,780.283020 672.437073,778.474487 675.312134,776.317749 
	C686.906433,767.620178 698.368164,758.745422 709.845276,749.892578 
	C711.377808,748.710510 713.305786,747.881409 714.229126,745.583862 
	C710.231873,742.112488 705.549622,741.543640 700.737671,742.723022 
	C691.293701,745.037598 684.797180,750.902954 681.857788,760.211975 
	C680.890930,763.274048 679.599243,764.239014 676.520081,763.483887 
	C673.780518,762.812134 670.944336,762.476990 668.131287,762.176147 
	C664.066101,761.741455 663.369019,759.648254 664.260803,755.941650 
	C665.949951,748.920227 669.218750,742.908569 674.698608,737.695068 
M708.325073,781.690063 
	C722.070312,779.833984 730.075317,766.661011 722.959290,756.958191 
	C714.212769,763.357239 705.502136,769.782654 697.149902,776.990356 
	C700.014832,780.811523 703.638794,781.526733 708.325073,781.690063 
z"/>
<path fill="#000000" opacity="1.000000" stroke="none" 
	d="
M823.694031,524.994385 
	C823.255066,511.263550 822.823792,498.027588 822.383484,484.515137 
	C817.039734,484.875641 814.228699,487.865143 812.333374,491.622314 
	C807.652710,500.901215 808.331482,510.070343 814.297302,518.501343 
	C816.548340,521.682495 816.351196,523.708069 813.582886,526.091858 
	C810.589844,528.669067 808.188416,531.934875 804.766846,534.034363 
	C801.179504,531.765869 798.716003,528.803528 796.996460,525.375916 
	C789.296509,510.026855 789.294312,494.387909 797.125610,479.294983 
	C804.030396,465.987579 816.251404,460.520233 830.760193,460.973328 
	C845.781860,461.442474 857.325806,468.497375 863.604248,482.433441 
	C874.264893,506.096832 863.416565,535.738708 832.708679,538.791748 
	C825.256409,539.532715 823.969482,538.586609 823.792480,530.985046 
	C823.749878,529.153381 823.731323,527.321167 823.694031,524.994385 
M838.395813,483.456055 
	C835.184509,483.023041 835.923828,485.346344 835.979187,487.042725 
	C836.229065,494.690796 836.470337,502.340729 836.881226,509.981018 
	C836.998840,512.167542 836.173706,514.703308 838.357849,516.428284 
	C845.612488,514.565125 849.432617,509.925568 850.149963,502.201569 
	C850.976868,493.298370 847.610474,487.669586 838.395813,483.456055 
z"/>
<path fill="#000000" opacity="1.000000" stroke="none" 
	d="
M753.455200,369.453064 
	C745.693970,356.907104 742.552307,343.952148 748.304993,330.182587 
	C754.083923,316.350159 769.528320,306.207367 783.904114,307.041748 
	C800.777588,308.021149 812.587463,316.969971 819.241333,332.344482 
	C827.299622,350.964203 820.600098,370.104309 803.184692,380.023987 
	C799.549255,382.094727 797.537231,381.912354 795.279358,378.014221 
	C787.936768,365.337830 780.209045,352.884308 772.605042,340.359863 
	C771.767212,338.979919 771.226562,337.284576 769.128540,336.669708 
	C765.508179,340.034332 763.939758,344.565460 764.674500,349.171997 
	C766.131714,358.307983 770.685486,365.869476 779.377747,369.878204 
	C783.371033,371.719849 784.177734,373.885132 782.528137,377.592194 
	C782.126099,378.495758 781.962952,379.505615 781.690125,380.466675 
	C779.114990,389.538147 778.304993,389.915558 769.936340,385.571472 
	C762.937683,381.938568 757.765076,376.386841 753.455200,369.453064 
M783.709961,332.952301 
	C788.638428,340.968781 793.566895,348.985260 798.506470,357.019745 
	C804.323914,352.883301 806.176208,346.407288 803.743164,339.693634 
	C800.762268,331.468323 793.877686,326.702545 785.992371,327.183807 
	C781.925781,327.432007 780.797974,328.869446 783.709961,332.952301 
z"/>
<path fill="#000000" opacity="1.000000" stroke="none" 
	d="
M219.453094,439.558167 
	C228.809250,433.024261 232.779892,421.824127 229.293518,410.702209 
	C228.110901,406.929443 228.881165,405.118805 232.264786,403.779663 
	C233.807007,403.169312 235.246674,402.299988 236.733200,401.548767 
	C243.609848,398.073761 244.353821,398.331512 246.895981,405.663757 
	C253.671249,425.205383 241.711441,458.088837 214.766922,462.777100 
	C191.843628,466.765656 168.637680,445.927460 170.959396,422.747803 
	C172.827042,404.101654 182.456696,391.061584 197.597351,386.432861 
	C205.730576,383.946411 213.658524,384.674164 221.636856,387.160614 
	C225.203705,388.272217 225.681061,390.062286 224.661942,393.503723 
	C220.552094,407.382355 216.729294,421.346191 212.836639,435.288635 
	C212.315598,437.154877 212.001190,439.078827 211.590744,440.977600 
	C214.769379,442.238464 216.868759,440.568634 219.453094,439.558167 
M203.513672,419.128510 
	C204.266327,414.590729 206.758621,410.439270 206.720322,405.716492 
	C198.774857,404.290375 192.022018,408.842377 189.360703,417.231140 
	C186.546646,426.101349 189.589005,433.696838 197.970901,437.462982 
	C199.747284,431.561340 201.502792,425.729095 203.513672,419.128510 
z"/>
<path fill="#000000" opacity="1.000000" stroke="none" 
	d="
M496.057068,212.182129 
	C503.896881,206.922348 503.896881,206.922333 510.779449,213.018112 
	C516.896179,218.435608 516.893555,218.703766 510.670166,224.156021 
	C488.424774,243.645142 449.554993,233.300201 442.411560,205.827606 
	C438.470886,190.672348 442.043030,177.222916 454.246979,167.134598 
	C466.991364,156.599548 481.731964,154.599197 496.913910,160.931458 
	C511.292023,166.928497 517.512146,179.031601 518.881897,194.035568 
	C519.149841,196.970734 517.958740,198.216888 515.008667,198.521820 
	C500.290100,200.043198 485.587189,201.715652 470.876770,203.316330 
	C468.934082,203.527710 466.848267,203.092056 465.239777,204.651993 
	C468.277924,215.209869 481.934906,218.652298 496.057068,212.182129 
M482.258270,188.672607 
	C486.797211,188.132782 491.336182,187.592972 495.867462,187.054062 
	C494.765045,179.132416 488.110077,174.654190 478.854675,175.115768 
	C469.372467,175.588623 463.412537,181.265488 463.175415,190.482956 
	C469.264038,189.899887 475.306305,189.321259 482.258270,188.672607 
z"/>
<path fill="#000000" opacity="1.000000" stroke="none" 
	d="
M787.769043,588.689148 
	C809.956787,571.221924 844.664795,585.664307 848.065491,614.999939 
	C850.434387,635.434509 835.569153,657.231445 815.506470,661.539673 
	C790.397400,666.931702 766.598694,644.087280 770.987732,618.745056 
	C773.035706,606.920044 777.668945,596.465332 787.769043,588.689148 
M821.963501,636.543884 
	C828.643616,630.281555 830.684937,622.618164 827.598694,615.389587 
	C824.343689,607.765869 815.267273,602.636902 805.871643,603.274170 
	C798.863098,603.749573 794.185547,607.597107 791.364075,613.869995 
	C788.531494,620.167419 789.034363,626.185120 793.194336,631.735779 
	C798.282349,638.524536 811.861511,644.040222 821.963501,636.543884 
z"/>
<path fill="#000000" opacity="1.000000" stroke="none" 
	d="
M432.563904,206.521057 
	C436.062744,215.220795 439.221344,223.651047 442.853699,231.871994 
	C444.600372,235.825150 443.569275,237.577789 439.732483,238.832230 
	C436.102722,240.018997 432.551086,241.523315 429.110657,243.188644 
	C425.587341,244.894089 423.715240,244.011902 422.311401,240.366837 
	C418.480865,230.420944 414.380615,220.578934 410.385223,210.696579 
	C409.885834,209.461319 409.426849,208.206284 408.860382,207.002167 
	C404.874237,198.528687 399.026917,195.635529 391.277618,198.272629 
	C382.242767,201.347198 377.547821,208.994644 379.960785,217.693359 
	C382.904327,228.304840 387.968109,238.144989 391.865204,248.416107 
	C392.396942,249.817612 392.837830,251.271805 393.533752,252.589081 
	C395.065582,255.488754 394.251282,257.211090 391.221588,258.321045 
	C387.314545,259.752380 383.379456,261.182159 379.654785,263.015564 
	C375.801636,264.912231 374.080811,263.659973 372.620178,259.919220 
	C366.804474,245.025421 360.740173,230.228775 354.784821,215.389359 
	C352.799927,210.443390 351.013550,205.411530 348.855042,200.543701 
	C347.469147,197.418304 347.924438,195.601944 351.322479,194.498398 
	C354.325867,193.523010 357.287048,192.338974 360.127899,190.960648 
	C364.172058,188.998505 367.733917,188.011520 369.208374,193.860596 
	C371.490936,193.207092 371.995331,191.244812 373.063141,189.896225 
	C380.011414,181.120758 389.278931,176.493774 400.200287,175.933151 
	C413.251984,175.263153 421.739166,182.568100 427.285309,193.696289 
	C429.285065,197.708817 430.723694,202.001007 432.563904,206.521057 
z"/>
<path fill="#000000" opacity="1.000000" stroke="none" 
	d="
M223.377594,338.381165 
	C221.087173,342.083435 218.823273,345.423767 218.374573,349.529541 
	C218.134857,351.723175 218.155838,353.997833 220.433731,355.251801 
	C222.859451,356.587128 225.053391,355.694794 226.738449,353.861755 
	C230.677017,349.577362 234.467606,345.157166 238.327942,340.800659 
	C239.762680,339.181519 241.153336,337.514618 242.686722,335.993103 
	C249.674454,329.059387 257.940948,327.349213 265.834473,331.136108 
	C274.263214,335.179688 279.444733,343.901764 278.006561,353.202850 
	C275.250580,371.026428 265.920502,384.954346 251.573181,395.681641 
	C249.066818,397.555634 247.121277,397.437378 245.364029,394.704163 
	C243.207687,391.350189 239.638443,388.296539 239.030075,384.713989 
	C238.318878,380.525940 243.975662,379.758881 246.512634,377.124084 
	C251.168243,372.288910 255.548401,367.356781 258.326691,361.175262 
	C259.151337,359.340485 259.795959,357.483032 259.783264,355.421600 
	C259.771179,353.455811 259.296356,351.767822 257.426880,350.820953 
	C255.534225,349.862274 253.873215,350.564697 252.343552,351.738861 
	C249.124619,354.209595 247.069229,357.713013 244.433014,360.701385 
	C241.681824,363.820099 239.083847,367.082916 236.210251,370.082916 
	C229.238708,377.361176 220.967545,379.395782 213.181702,375.940796 
	C204.700104,372.177063 198.801392,363.184204 199.880051,353.870728 
	C201.882980,336.576508 210.632004,323.045685 224.550171,312.765350 
	C225.065018,312.385071 225.747787,312.232147 226.709045,311.820465 
	C230.157944,315.182495 232.371475,319.509064 235.214310,323.335876 
	C236.788147,325.454437 235.156326,326.579407 233.632584,327.747437 
	C229.782669,330.698792 226.347992,334.070312 223.377594,338.381165 
z"/>
<path fill="#000000" opacity="1.000000" stroke="none" 
	d="
M788.590149,441.826416 
	C785.315002,441.574432 783.712402,440.110016 782.958008,437.308502 
	C781.702942,432.647430 780.235229,428.042145 778.790710,423.434143 
	C778.081909,421.172974 778.208374,419.394226 780.275513,417.708130 
	C799.125549,402.332916 817.902039,386.867615 836.726379,371.460785 
	C837.455627,370.863922 838.451721,370.593109 839.901489,369.890015 
	C841.941895,376.506226 844.013367,382.782715 845.773987,389.145264 
	C846.495789,391.753479 843.977539,392.887177 842.373352,394.176514 
	C831.728394,402.732880 821.012268,411.200562 810.338257,419.720856 
	C809.182922,420.643066 808.148804,421.717285 806.521790,423.215057 
	C811.238770,425.509552 815.965027,424.987732 820.389160,425.534271 
	C831.461121,426.902191 842.585754,427.844147 853.689880,428.950378 
	C855.373291,429.118103 857.312439,429.214203 857.957031,430.992828 
	C860.087219,436.870026 862.173401,442.781250 863.443909,450.184540 
	C838.092773,447.372833 813.549561,444.650696 788.590149,441.826416 
z"/>
<path fill="#000000" opacity="1.000000" stroke="none" 
	d="
M829.480225,572.681519 
	C816.608093,570.516724 804.172485,568.364380 791.697632,566.470093 
	C788.468994,565.979797 787.307190,564.515015 787.806458,561.491821 
	C788.563660,556.907532 789.410034,552.338013 790.171387,547.754395 
	C790.635315,544.961365 791.843201,543.951355 794.942749,544.485840 
	C812.285767,547.476685 829.663574,550.268860 847.040649,553.059143 
	C859.516907,555.062622 872.011047,556.954163 884.496399,558.900696 
	C890.899780,559.899109 891.107483,560.147034 890.127808,566.531677 
	C889.598389,569.981750 888.624023,573.392395 888.413513,576.855042 
	C888.165405,580.937378 886.302734,581.889099 882.577332,581.263123 
	C866.840698,578.618835 851.082642,576.101685 835.330444,573.550110 
	C833.527283,573.257996 831.711792,573.041565 829.480225,572.681519 
z"/>
<path fill="#000000" opacity="1.000000" stroke="none" 
	d="
M196.981140,651.067505 
	C189.210785,654.182861 181.753922,657.055237 174.413712,660.199829 
	C171.281906,661.541565 169.563889,661.082275 168.374161,657.723083 
	C166.820984,653.337585 165.024399,649.017212 163.012894,644.822083 
	C161.482941,641.631226 162.338715,640.128967 165.505981,638.862183 
	C182.966797,631.878296 200.360916,624.727722 217.787125,617.657104 
	C227.195282,613.839783 236.668854,610.178650 246.014099,606.214172 
	C249.205322,604.860352 250.858688,605.383728 252.019897,608.698547 
	C253.503754,612.934387 255.142792,617.144043 257.103485,621.176086 
	C258.859283,624.786804 257.820740,626.528809 254.278748,627.941284 
	C235.266861,635.523254 216.314651,643.254883 196.981140,651.067505 
z"/>
<path fill="#000000" opacity="1.000000" stroke="none" 
	d="
M637.956421,840.967529 
	C635.690979,836.300110 633.761230,831.870239 631.547852,827.587036 
	C630.212341,825.002563 630.891541,823.705505 633.406067,822.583496 
	C635.667175,821.574646 637.884277,820.328247 639.857056,818.837646 
	C646.349792,813.931763 648.057312,806.350647 644.286560,797.729980 
	C640.152954,788.279846 635.758118,778.936523 631.201538,769.682373 
	C629.337097,765.895935 629.620850,763.595337 633.823059,761.985901 
	C637.700562,760.500916 641.442566,758.641785 645.176208,756.809082 
	C647.726807,755.557007 649.466614,755.776978 650.764038,758.606873 
	C659.987671,778.725098 669.249084,798.826172 678.604736,818.883179 
	C679.849609,821.551819 679.097351,822.841248 676.629944,823.880493 
	C673.718140,825.106812 670.845032,826.442017 668.029907,827.876770 
	C663.777344,830.043945 659.534241,832.560242 657.566772,824.296814 
	C655.023560,829.378662 652.305298,833.480713 648.374573,836.424561 
	C645.352173,838.688110 642.823303,842.317200 637.956421,840.967529 
z"/>
<path fill="#000000" opacity="1.000000" stroke="none" 
	d="
M559.602417,183.466003 
	C553.830383,187.660828 552.280212,193.590149 551.507446,199.804688 
	C550.340088,209.193771 549.217957,218.592651 548.347107,228.012390 
	C547.988464,231.891479 546.526001,233.277679 542.594849,232.588745 
	C538.341736,231.843384 534.004211,231.562927 529.696838,231.149399 
	C526.816650,230.872864 525.616211,229.511841 525.977722,226.524887 
	C528.610718,204.769669 531.184937,183.007278 533.741821,161.242950 
	C534.040833,158.698074 534.988770,157.243042 537.875610,157.590881 
	C542.496826,158.147644 547.151550,158.432373 551.768433,159.018036 
	C556.908264,159.670013 554.770264,163.512024 554.751892,167.163254 
	C559.708252,164.216705 564.506653,161.738556 569.961670,161.245987 
	C572.107300,161.052261 574.270752,160.873306 576.418945,160.934937 
	C579.092651,161.011658 580.271484,162.512787 579.933228,165.221283 
	C579.438660,169.180801 578.898132,173.139725 578.585571,177.115295 
	C578.315918,180.544739 576.743408,181.910934 573.364136,181.085205 
	C568.573608,179.914673 564.143066,180.979248 559.602417,183.466003 
z"/>
<path fill="#000000" opacity="1.000000" stroke="none" 
	d="
M292.191284,339.161255 
	C289.956390,340.467834 288.784973,338.953064 287.566528,337.946198 
	C271.154846,324.384766 254.824936,310.723602 238.332764,297.261108 
	C235.083099,294.608398 234.227768,292.572632 237.497940,289.332001 
	C240.200729,286.653564 242.635361,283.633911 244.790680,280.492279 
	C247.281586,276.861542 249.490723,277.417145 252.452408,279.906006 
	C266.586273,291.783508 280.847595,303.509247 295.009583,315.353546 
	C298.168304,317.995331 301.727051,320.212616 304.577362,323.761963 
	C301.040253,329.294495 296.475800,333.903290 292.191284,339.161255 
z"/>
<path fill="#000000" opacity="1.000000" stroke="none" 
	d="
M558.832397,810.823608 
	C552.159668,807.953186 549.504089,802.936584 549.749878,796.341125 
	C549.951477,790.932617 553.755371,786.484131 559.206543,784.674072 
	C564.521729,782.909180 569.203369,784.255371 572.907227,788.132141 
	C576.683167,792.084412 578.312073,796.934326 576.316223,802.369141 
	C574.345947,807.734558 570.262146,810.592834 564.679138,811.221558 
	C562.890625,811.422974 561.039856,811.071533 558.832397,810.823608 
z"/>
<path fill="#000000" opacity="1.000000" stroke="none" 
	d="
M630.676514,229.303833 
	C635.014038,234.313995 636.111145,239.456787 633.131836,245.211990 
	C630.589233,250.123581 626.448120,252.504608 621.076355,252.689713 
	C615.658997,252.876389 610.524292,249.534012 608.524170,244.455231 
	C606.399109,239.059280 607.271973,233.888763 611.076660,229.563904 
	C614.876648,225.244431 619.892151,224.469223 625.212585,226.187866 
	C627.060059,226.784653 628.685242,228.069611 630.676514,229.303833 
z"/>
<path fill="#000000" opacity="1.000000" stroke="none" 
	d="
M236.604172,265.979584 
	C238.085281,273.683929 236.034775,278.785065 230.017624,282.616882 
	C226.276520,284.999329 222.237045,285.703461 218.210373,283.384033 
	C214.231644,281.092255 211.736664,277.751251 211.678482,272.907684 
	C211.597992,266.206268 216.326416,260.287506 223.260849,258.526825 
	C228.840866,257.110046 233.195404,259.447662 236.604172,265.979584 
z"/>
</svg>