<svg width="60" height="60" viewBox="0 0 60 60" fill="none" xmlns="http://www.w3.org/2000/svg">
<path fill-rule="evenodd" clip-rule="evenodd" d="M49 30C49 32.5224 48.5982 34.8924 47.7946 37.1101C47.0078 39.3277 45.8862 41.2576 44.4297 42.8997C42.9732 44.5418 41.2238 45.8369 39.1814 46.7849C37.1557 47.7329 34.904 48.2069 32.4263 48.2069H24.4138V43.0013H32.4263C34.2009 43.0013 35.7913 42.6627 37.1975 41.9856C38.6205 41.3084 39.8175 40.3858 40.7885 39.2177C41.7762 38.0327 42.5296 36.653 43.0485 35.0786C43.5843 33.4873 43.8521 31.7944 43.8521 30C43.8521 28.2055 43.5843 26.5211 43.0485 24.9467C42.5296 23.3724 41.7762 22.0011 40.7885 20.8331C39.8175 19.648 38.6205 18.717 37.1975 18.0398C35.7913 17.3457 34.2009 16.9987 32.4263 16.9987H21.1479V17H21V17L16 17V11.7931H32.4263C34.904 11.7931 37.1557 12.2756 39.1814 13.2405C41.2238 14.1885 42.9732 15.492 44.4297 17.151C45.8862 18.7931 47.0078 20.723 47.7946 22.9407C48.5982 25.1414 49 27.4945 49 30ZM16 20.4138V48.2069H21V20.4138H16Z" fill="black"/>
<path fill-rule="evenodd" clip-rule="evenodd" d="M56 30C56 44.3594 44.3594 56 30 56C23.572 56 17.6889 53.6673 13.1509 49.8024L10.3146 52.6387C15.583 57.2238 22.4673 60 30 60C46.5685 60 60 46.5685 60 30C60 22.4673 57.2238 15.583 52.6387 10.3146L49.8024 13.1509C53.6673 17.6889 56 23.572 56 30ZM49.8185 7.47784L46.9835 10.3129C42.4276 6.37907 36.4916 4 30 4C15.6406 4 4 15.6406 4 30C4 36.4916 6.37907 42.4276 10.3129 46.9835L7.47784 49.8185C2.82331 44.5332 0 37.5963 0 30C0 13.4315 13.4315 0 30 0C37.5963 0 44.5332 2.82331 49.8185 7.47784Z" fill="black"/>
</svg>
